<?xml version="1.0" standalone="no"?>
<!DOCTYPE svg PUBLIC "-//W3C//DTD SVG 20010904//EN"
 "http://www.w3.org/TR/2001/REC-SVG-20010904/DTD/svg10.dtd">
<svg version="1.0" xmlns="http://www.w3.org/2000/svg"
 width="500.000000pt" height="500.000000pt" viewBox="0 0 500.000000 500.000000"
 preserveAspectRatio="xMidYMid meet">
<metadata>
Created by potrace 1.11, written by Peter Selinger 2001-2013
</metadata>
<g transform="translate(0.000000,500.000000) scale(0.100000,-0.100000)"
fill="#000000" stroke="none">
<path d="M1398 3673 c-19 -21 -50 -52 -70 -69 l-36 -31 229 -229 228 -228 74
71 73 72 -225 225 c-125 124 -229 226 -232 226 -4 0 -22 -17 -41 -37z"/>
<path d="M3307 3055 c-4 -26 -7 -232 -7 -456 l0 -409 36 0 35 0 -3 388 -3 388
42 -45 c46 -50 51 -61 28 -61 -8 0 -15 -6 -15 -12 0 -14 41 -180 46 -187 2 -2
33 4 70 13 l67 17 22 -23 c12 -13 118 -133 236 -268 l214 -245 3 333 2 333 25
9 c25 9 25 10 10 48 -9 21 -21 72 -28 113 -11 64 -15 74 -35 77 -16 3 -22 -2
-22 -16 0 -11 -6 -24 -12 -29 -11 -8 -493 -143 -511 -143 -4 0 -138 152 -178
202 -15 20 -16 19 -22 -27z m721 -519 l-3 -258 -184 211 c-101 117 -181 214
-179 216 10 11 354 101 361 95 4 -3 6 -122 5 -264z"/>
<path d="M2515 3061 c-77 -28 -108 -46 -166 -100 -156 -143 -193 -367 -92
-553 38 -69 130 -153 210 -190 56 -27 83 -33 156 -36 195 -10 352 80 437 247
124 246 -6 550 -271 632 -80 25 -206 25 -274 0z m248 -53 c103 -22 216 -126
258 -239 62 -161 10 -344 -128 -449 -176 -136 -420 -103 -555 75 -55 72 -73
133 -73 240 0 80 4 97 32 157 57 120 173 210 295 228 56 8 93 5 171 -12z"/>
<path d="M292 2633 l3 -438 25 0 25 0 3 208 2 207 270 0 270 0 0 -211 0 -210
23 3 22 3 3 438 2 437 -25 0 -25 0 0 -205 0 -205 -270 0 -270 0 0 205 0 205
-30 0 -30 0 2 -437z"/>
<path d="M1190 2630 l0 -440 25 0 25 0 0 440 0 440 -25 0 -25 0 0 -440z"/>
<path d="M1457 3064 c-4 -4 -7 -202 -7 -441 l0 -433 30 0 30 0 0 197 0 196 52
47 53 47 193 -243 c186 -235 195 -244 228 -244 26 0 33 3 27 13 -4 6 -93 120
-198 252 -105 132 -194 245 -198 252 -4 7 61 76 170 179 98 92 180 171 181
176 2 4 -12 8 -31 8 -31 0 -56 -20 -258 -213 l-224 -213 0 210 c0 205 -1 211
-20 214 -12 2 -24 0 -28 -4z"/>
<path d="M4340 2630 l0 -440 25 0 25 0 0 440 0 440 -25 0 -25 0 0 -440z"/>
<path d="M4650 2630 l0 -440 25 0 25 0 0 440 0 440 -25 0 -25 0 0 -440z"/>
<path d="M1805 1459 c-113 -200 -132 -229 -150 -225 -119 33 -266 32 -375 -3
-199 -63 -362 -235 -414 -437 -21 -80 -21 -228 0 -308 39 -151 151 -300 285
-379 245 -144 553 -104 754 97 118 118 179 267 179 436 0 98 -15 169 -55 258
-30 67 -118 185 -151 203 -13 7 -17 16 -13 27 3 9 62 117 131 238 68 122 124
225 124 228 0 3 -6 6 -13 6 -7 0 -46 20 -86 45 -40 25 -76 45 -79 45 -4 0 -65
-104 -137 -231z m-55 -259 c22 -11 40 -23 40 -25 0 -5 -79 32 -89 41 -11 10
14 2 49 -16z"/>
</g>
</svg>
